<mxfile host="app.diagrams.net" modified="2021-04-26T18:38:53.056Z" agent="5.0 (Windows NT 10.0; Win64; x64) AppleWebKit/537.36 (KHTML, like Gecko) Chrome/90.0.4430.85 Safari/537.36" etag="LSjAnaRv85-SOEL7CFmA" version="14.6.6" type="github">
  <diagram id="2PWqOyK30ByD1Av7zfay" name="Page-1">
    <mxGraphModel dx="2031" dy="1089" grid="1" gridSize="10" guides="1" tooltips="1" connect="1" arrows="1" fold="1" page="1" pageScale="1" pageWidth="1600" pageHeight="900" math="0" shadow="0">
      <root>
        <mxCell id="0" />
        <mxCell id="1" parent="0" />
        <mxCell id="guxchqbyqDh5aLnwngeI-1" value="&lt;h1&gt;&lt;font face=&quot;Verdana&quot; style=&quot;font-size: 30px&quot;&gt;WEBGPU&amp;nbsp;&lt;/font&gt;&lt;/h1&gt;" style="text;html=1;strokeColor=none;fillColor=none;align=center;verticalAlign=middle;whiteSpace=wrap;rounded=0;" parent="1" vertex="1">
          <mxGeometry x="490" y="80" width="610" height="20" as="geometry" />
        </mxCell>
        <mxCell id="guxchqbyqDh5aLnwngeI-2" value="&lt;font style=&quot;line-height: 100% ; font-size: 30px&quot; face=&quot;Comic Sans MS&quot;&gt;INPUT BUFFERS&lt;/font&gt;" style="rounded=0;whiteSpace=wrap;html=1;fillColor=#dae8fc;strokeColor=#6c8ebf;sketch=1;labelBackgroundColor=none;" parent="1" vertex="1">
          <mxGeometry x="330" y="319" width="350" height="60" as="geometry" />
        </mxCell>
        <mxCell id="guxchqbyqDh5aLnwngeI-3" value="&lt;font style=&quot;line-height: 100% ; font-size: 30px&quot; face=&quot;Comic Sans MS&quot;&gt;RENDER PASS&lt;/font&gt;" style="rounded=0;whiteSpace=wrap;html=1;fillColor=#dae8fc;strokeColor=#6c8ebf;sketch=1;labelBackgroundColor=none;" parent="1" vertex="1">
          <mxGeometry x="330" y="469" width="350" height="60" as="geometry" />
        </mxCell>
        <mxCell id="guxchqbyqDh5aLnwngeI-4" value="&lt;font style=&quot;line-height: 100% ; font-size: 30px&quot; face=&quot;Comic Sans MS&quot;&gt;DRAW FRAME&lt;/font&gt;" style="rounded=0;whiteSpace=wrap;html=1;fillColor=#dae8fc;strokeColor=#6c8ebf;sketch=1;labelBackgroundColor=none;" parent="1" vertex="1">
          <mxGeometry x="330" y="629" width="350" height="60" as="geometry" />
        </mxCell>
        <mxCell id="guxchqbyqDh5aLnwngeI-5" value="" style="shape=flexArrow;endArrow=classic;html=1;fontColor=#333333;sketch=1;" parent="1" edge="1">
          <mxGeometry width="50" height="50" relative="1" as="geometry">
            <mxPoint x="380" y="259" as="sourcePoint" />
            <mxPoint x="380" y="315" as="targetPoint" />
          </mxGeometry>
        </mxCell>
        <mxCell id="guxchqbyqDh5aLnwngeI-6" value="&lt;font face=&quot;Comic Sans MS&quot; style=&quot;font-size: 25px;&quot;&gt;vertices&lt;/font&gt;" style="text;html=1;strokeColor=none;fillColor=none;align=center;verticalAlign=middle;whiteSpace=wrap;rounded=0;labelBackgroundColor=none;sketch=1;fontColor=#333333;rotation=-30;fontSize=25;" parent="1" vertex="1">
          <mxGeometry x="350" y="219" width="40" height="20" as="geometry" />
        </mxCell>
        <mxCell id="guxchqbyqDh5aLnwngeI-7" value="" style="shape=flexArrow;endArrow=classic;html=1;fontColor=#333333;sketch=1;" parent="1" edge="1">
          <mxGeometry width="50" height="50" relative="1" as="geometry">
            <mxPoint x="440" y="259" as="sourcePoint" />
            <mxPoint x="440" y="315" as="targetPoint" />
          </mxGeometry>
        </mxCell>
        <mxCell id="guxchqbyqDh5aLnwngeI-8" value="&lt;font face=&quot;Comic Sans MS&quot; style=&quot;font-size: 25px;&quot;&gt;&lt;span style=&quot;font-size: 25px;&quot;&gt;textures&lt;br style=&quot;font-size: 25px;&quot;&gt;&lt;br style=&quot;font-size: 25px;&quot;&gt;&lt;/span&gt;&lt;/font&gt;" style="text;html=1;strokeColor=none;fillColor=none;align=center;verticalAlign=middle;whiteSpace=wrap;rounded=0;labelBackgroundColor=none;sketch=1;fontColor=#333333;rotation=-30;fontSize=25;" parent="1" vertex="1">
          <mxGeometry x="420" y="229" width="40" height="20" as="geometry" />
        </mxCell>
        <mxCell id="guxchqbyqDh5aLnwngeI-13" value="" style="shape=flexArrow;endArrow=classic;html=1;fontColor=#333333;sketch=1;" parent="1" edge="1">
          <mxGeometry width="50" height="50" relative="1" as="geometry">
            <mxPoint x="500" y="263" as="sourcePoint" />
            <mxPoint x="500" y="319" as="targetPoint" />
          </mxGeometry>
        </mxCell>
        <mxCell id="guxchqbyqDh5aLnwngeI-14" value="&lt;font face=&quot;Comic Sans MS&quot; style=&quot;font-size: 25px;&quot;&gt;&lt;span style=&quot;font-size: 25px;&quot;&gt;uniform&lt;br style=&quot;font-size: 25px;&quot;&gt;&lt;/span&gt;&lt;/font&gt;" style="text;html=1;strokeColor=none;fillColor=none;align=center;verticalAlign=middle;whiteSpace=wrap;rounded=0;labelBackgroundColor=none;sketch=1;fontColor=#333333;rotation=-30;fontSize=25;" parent="1" vertex="1">
          <mxGeometry x="480" y="219" width="40" height="20" as="geometry" />
        </mxCell>
        <mxCell id="guxchqbyqDh5aLnwngeI-17" value="&lt;font face=&quot;Comic Sans MS&quot; style=&quot;font-size: 25px;&quot;&gt;&lt;font style=&quot;font-size: 25px;&quot;&gt;...&lt;/font&gt;&lt;br style=&quot;font-size: 25px;&quot;&gt;&lt;/font&gt;" style="text;html=1;strokeColor=none;fillColor=none;align=center;verticalAlign=middle;whiteSpace=wrap;rounded=0;labelBackgroundColor=none;sketch=1;fontColor=#333333;rotation=-30;fontSize=25;" parent="1" vertex="1">
          <mxGeometry x="530" y="259" width="40" height="20" as="geometry" />
        </mxCell>
        <mxCell id="guxchqbyqDh5aLnwngeI-18" value="" style="shape=flexArrow;endArrow=classic;html=1;fontColor=#333333;sketch=1;width=100;endSize=11.023529411764706;entryX=0.5;entryY=0;entryDx=0;entryDy=0;endWidth=76.47058823529412;" parent="1" target="guxchqbyqDh5aLnwngeI-3" edge="1">
          <mxGeometry width="50" height="50" relative="1" as="geometry">
            <mxPoint x="505" y="389" as="sourcePoint" />
            <mxPoint x="390" y="325" as="targetPoint" />
          </mxGeometry>
        </mxCell>
        <mxCell id="guxchqbyqDh5aLnwngeI-19" value="" style="shape=flexArrow;endArrow=classic;html=1;fontColor=#333333;sketch=1;width=100;endSize=11.023529411764706;entryX=0.5;entryY=0;entryDx=0;entryDy=0;endWidth=76.47058823529412;" parent="1" edge="1">
          <mxGeometry width="50" height="50" relative="1" as="geometry">
            <mxPoint x="504.40999999999997" y="549" as="sourcePoint" />
            <mxPoint x="504.40999999999997" y="629" as="targetPoint" />
          </mxGeometry>
        </mxCell>
        <mxCell id="guxchqbyqDh5aLnwngeI-22" value="&lt;font face=&quot;Comic Sans MS&quot; style=&quot;font-size: 25px&quot;&gt;&lt;span style=&quot;font-size: 25px&quot;&gt;compute with shaders&lt;br style=&quot;font-size: 25px&quot;&gt;&lt;/span&gt;&lt;/font&gt;" style="text;html=1;strokeColor=none;fillColor=none;align=center;verticalAlign=middle;whiteSpace=wrap;rounded=0;labelBackgroundColor=none;sketch=1;fontColor=#333333;rotation=-30;fontSize=25;" parent="1" vertex="1">
          <mxGeometry x="700" y="434" width="40" height="20" as="geometry" />
        </mxCell>
        <mxCell id="guxchqbyqDh5aLnwngeI-23" value="&lt;font face=&quot;Comic Sans MS&quot; style=&quot;font-size: 25px&quot;&gt;&lt;span style=&quot;font-size: 25px&quot;&gt;via swap chain&lt;br style=&quot;font-size: 25px&quot;&gt;&lt;/span&gt;&lt;/font&gt;" style="text;html=1;strokeColor=none;fillColor=none;align=center;verticalAlign=middle;whiteSpace=wrap;rounded=0;labelBackgroundColor=none;sketch=1;fontColor=#333333;rotation=-30;fontSize=25;" parent="1" vertex="1">
          <mxGeometry x="690" y="570" width="40" height="20" as="geometry" />
        </mxCell>
        <mxCell id="guxchqbyqDh5aLnwngeI-25" value="Render Pass" style="text;html=1;strokeColor=none;fillColor=none;align=center;verticalAlign=middle;whiteSpace=wrap;rounded=0;labelBackgroundColor=none;sketch=1;fontSize=25;fontColor=#333333;" parent="1" vertex="1">
          <mxGeometry x="420" y="120" width="170" height="20" as="geometry" />
        </mxCell>
        <mxCell id="guxchqbyqDh5aLnwngeI-26" value="Compute Pass" style="text;html=1;strokeColor=none;fillColor=none;align=center;verticalAlign=middle;whiteSpace=wrap;rounded=0;labelBackgroundColor=none;sketch=1;fontSize=25;fontColor=#333333;" parent="1" vertex="1">
          <mxGeometry x="1010" y="120" width="170" height="20" as="geometry" />
        </mxCell>
        <mxCell id="guxchqbyqDh5aLnwngeI-27" value="&lt;font style=&quot;line-height: 100% ; font-size: 30px&quot; face=&quot;Comic Sans MS&quot;&gt;INPUT BUFFERS&lt;/font&gt;" style="rounded=0;whiteSpace=wrap;html=1;fillColor=#ffe6cc;strokeColor=#d79b00;sketch=1;labelBackgroundColor=none;" parent="1" vertex="1">
          <mxGeometry x="910" y="319" width="350" height="60" as="geometry" />
        </mxCell>
        <mxCell id="guxchqbyqDh5aLnwngeI-28" value="&lt;font style=&quot;line-height: 100% ; font-size: 30px&quot; face=&quot;Comic Sans MS&quot;&gt;COMPUTE PASS&lt;/font&gt;" style="rounded=0;whiteSpace=wrap;html=1;fillColor=#ffe6cc;strokeColor=#d79b00;sketch=1;labelBackgroundColor=none;" parent="1" vertex="1">
          <mxGeometry x="910" y="469" width="350" height="60" as="geometry" />
        </mxCell>
        <mxCell id="guxchqbyqDh5aLnwngeI-29" value="&lt;font style=&quot;line-height: 100% ; font-size: 30px&quot; face=&quot;Comic Sans MS&quot;&gt;READ RESULTS&lt;/font&gt;" style="rounded=0;whiteSpace=wrap;html=1;fillColor=#ffe6cc;strokeColor=#d79b00;sketch=1;labelBackgroundColor=none;" parent="1" vertex="1">
          <mxGeometry x="910" y="629" width="350" height="60" as="geometry" />
        </mxCell>
        <mxCell id="guxchqbyqDh5aLnwngeI-30" value="" style="shape=flexArrow;endArrow=classic;html=1;fontColor=#333333;sketch=1;" parent="1" edge="1">
          <mxGeometry width="50" height="50" relative="1" as="geometry">
            <mxPoint x="960" y="259" as="sourcePoint" />
            <mxPoint x="960" y="315" as="targetPoint" />
          </mxGeometry>
        </mxCell>
        <mxCell id="guxchqbyqDh5aLnwngeI-31" value="&lt;font face=&quot;Comic Sans MS&quot; style=&quot;font-size: 25px&quot;&gt;array buffer&lt;/font&gt;" style="text;html=1;strokeColor=none;fillColor=none;align=center;verticalAlign=middle;whiteSpace=wrap;rounded=0;labelBackgroundColor=none;sketch=1;fontColor=#333333;rotation=-30;fontSize=25;" parent="1" vertex="1">
          <mxGeometry x="930" y="199" width="40" height="20" as="geometry" />
        </mxCell>
        <mxCell id="guxchqbyqDh5aLnwngeI-32" value="" style="shape=flexArrow;endArrow=classic;html=1;fontColor=#333333;sketch=1;" parent="1" edge="1">
          <mxGeometry width="50" height="50" relative="1" as="geometry">
            <mxPoint x="1060" y="259" as="sourcePoint" />
            <mxPoint x="1060" y="315" as="targetPoint" />
          </mxGeometry>
        </mxCell>
        <mxCell id="guxchqbyqDh5aLnwngeI-33" value="&lt;font face=&quot;Comic Sans MS&quot; style=&quot;font-size: 25px&quot;&gt;&lt;span style=&quot;font-size: 25px&quot;&gt;array buffer&lt;br style=&quot;font-size: 25px&quot;&gt;&lt;/span&gt;&lt;/font&gt;" style="text;html=1;strokeColor=none;fillColor=none;align=center;verticalAlign=middle;whiteSpace=wrap;rounded=0;labelBackgroundColor=none;sketch=1;fontColor=#333333;rotation=-30;fontSize=25;" parent="1" vertex="1">
          <mxGeometry x="1040" y="199" width="40" height="20" as="geometry" />
        </mxCell>
        <mxCell id="guxchqbyqDh5aLnwngeI-34" value="" style="shape=flexArrow;endArrow=classic;html=1;fontColor=#333333;sketch=1;" parent="1" edge="1">
          <mxGeometry width="50" height="50" relative="1" as="geometry">
            <mxPoint x="1160" y="263" as="sourcePoint" />
            <mxPoint x="1160" y="319" as="targetPoint" />
          </mxGeometry>
        </mxCell>
        <mxCell id="guxchqbyqDh5aLnwngeI-35" value="&lt;font face=&quot;Comic Sans MS&quot; style=&quot;font-size: 25px&quot;&gt;&lt;span style=&quot;font-size: 25px&quot;&gt;array buffer&lt;br style=&quot;font-size: 25px&quot;&gt;&lt;/span&gt;&lt;/font&gt;" style="text;html=1;strokeColor=none;fillColor=none;align=center;verticalAlign=middle;whiteSpace=wrap;rounded=0;labelBackgroundColor=none;sketch=1;fontColor=#333333;rotation=-30;fontSize=25;" parent="1" vertex="1">
          <mxGeometry x="1140" y="199" width="40" height="20" as="geometry" />
        </mxCell>
        <mxCell id="guxchqbyqDh5aLnwngeI-36" value="&lt;font face=&quot;Comic Sans MS&quot; style=&quot;font-size: 25px;&quot;&gt;&lt;font style=&quot;font-size: 25px;&quot;&gt;...&lt;/font&gt;&lt;br style=&quot;font-size: 25px;&quot;&gt;&lt;/font&gt;" style="text;html=1;strokeColor=none;fillColor=none;align=center;verticalAlign=middle;whiteSpace=wrap;rounded=0;labelBackgroundColor=none;sketch=1;fontColor=#333333;rotation=-30;fontSize=25;" parent="1" vertex="1">
          <mxGeometry x="1190" y="259" width="40" height="20" as="geometry" />
        </mxCell>
        <mxCell id="guxchqbyqDh5aLnwngeI-37" value="" style="shape=flexArrow;endArrow=classic;html=1;fontColor=#333333;sketch=1;width=100;endSize=11.023529411764706;entryX=0.5;entryY=0;entryDx=0;entryDy=0;endWidth=76.47058823529412;" parent="1" target="guxchqbyqDh5aLnwngeI-28" edge="1">
          <mxGeometry width="50" height="50" relative="1" as="geometry">
            <mxPoint x="1085" y="389" as="sourcePoint" />
            <mxPoint x="970" y="325" as="targetPoint" />
          </mxGeometry>
        </mxCell>
        <mxCell id="guxchqbyqDh5aLnwngeI-38" value="" style="shape=flexArrow;endArrow=classic;html=1;fontColor=#333333;sketch=1;width=100;endSize=11.023529411764706;entryX=0.5;entryY=0;entryDx=0;entryDy=0;endWidth=76.47058823529412;" parent="1" edge="1">
          <mxGeometry width="50" height="50" relative="1" as="geometry">
            <mxPoint x="1084.4099999999999" y="549" as="sourcePoint" />
            <mxPoint x="1084.4099999999999" y="629" as="targetPoint" />
          </mxGeometry>
        </mxCell>
        <mxCell id="guxchqbyqDh5aLnwngeI-39" value="&lt;span style=&quot;font-family: &amp;#34;comic sans ms&amp;#34;&quot;&gt;compute with shaders&lt;/span&gt;&lt;font face=&quot;Comic Sans MS&quot; style=&quot;font-size: 25px&quot;&gt;&lt;span style=&quot;font-size: 25px&quot;&gt;&lt;br style=&quot;font-size: 25px&quot;&gt;&lt;/span&gt;&lt;/font&gt;" style="text;html=1;strokeColor=none;fillColor=none;align=center;verticalAlign=middle;whiteSpace=wrap;rounded=0;labelBackgroundColor=none;sketch=1;fontColor=#333333;rotation=-30;fontSize=25;" parent="1" vertex="1">
          <mxGeometry x="1290" y="444" width="40" height="20" as="geometry" />
        </mxCell>
        <mxCell id="guxchqbyqDh5aLnwngeI-40" value="&lt;font face=&quot;Comic Sans MS&quot; style=&quot;font-size: 25px&quot;&gt;&lt;span style=&quot;font-size: 25px&quot;&gt;from buffers&lt;br style=&quot;font-size: 25px&quot;&gt;&lt;/span&gt;&lt;/font&gt;" style="text;html=1;strokeColor=none;fillColor=none;align=center;verticalAlign=middle;whiteSpace=wrap;rounded=0;labelBackgroundColor=none;sketch=1;fontColor=#333333;rotation=-30;fontSize=25;" parent="1" vertex="1">
          <mxGeometry x="1270" y="570" width="40" height="20" as="geometry" />
        </mxCell>
        <mxCell id="guxchqbyqDh5aLnwngeI-46" value="" style="endArrow=none;dashed=1;html=1;fontSize=25;fontColor=#333333;" parent="1" edge="1">
          <mxGeometry width="50" height="50" relative="1" as="geometry">
            <mxPoint x="805" y="810" as="sourcePoint" />
            <mxPoint x="805" y="130" as="targetPoint" />
          </mxGeometry>
        </mxCell>
        <mxCell id="_mJodvXivsJTDxUnufPS-1" style="edgeStyle=orthogonalEdgeStyle;rounded=0;orthogonalLoop=1;jettySize=auto;html=1;exitX=0.5;exitY=1;exitDx=0;exitDy=0;" edge="1" parent="1" source="guxchqbyqDh5aLnwngeI-26" target="guxchqbyqDh5aLnwngeI-26">
          <mxGeometry relative="1" as="geometry" />
        </mxCell>
      </root>
    </mxGraphModel>
  </diagram>
</mxfile>
